<svg width="1728" height="1117" viewBox="0 0 1728 1117" fill="none" xmlns="http://www.w3.org/2000/svg">
<g clip-path="url(#clip0_246_123)">
<rect width="1728" height="1117" fill="black"/>
<path opacity="0.0144928" d="M1614.55 1589.32L1840.88 1355.24C1845.1 1350.88 1847.42 1345.04 1847.35 1338.97L1841.73 872.909C1841.67 868.142 1840.14 863.511 1837.33 859.656L1597.19 529.55C1592.1 522.56 1583.53 519.011 1574.99 520.363L1294.54 564.782C1286 566.134 1278.94 572.159 1276.27 580.378L1149.88 968.537C1148.41 973.07 1148.37 977.95 1149.79 982.501L1288.47 1427.49C1290.28 1433.28 1294.29 1438.12 1299.65 1440.96L1587.23 1593.65C1596.29 1598.46 1607.43 1596.69 1614.55 1589.32Z" stroke="url(#paint0_linear_246_123)" stroke-width="4"/>
<path opacity="0.0289855" d="M1563.53 1589.27L1800.45 1369.33C1804.9 1365.2 1807.53 1359.47 1807.78 1353.41L1826.61 891.976C1826.8 887.199 1825.51 882.479 1822.89 878.474L1601.81 539.497C1597.09 532.266 1588.73 528.285 1580.14 529.187L1299.43 558.691C1290.85 559.594 1283.49 565.228 1280.38 573.281L1134.6 950.816C1132.88 955.277 1132.59 960.163 1133.78 964.796L1248.13 1412.23C1249.64 1418.11 1253.4 1423.16 1258.61 1426.28L1536.08 1592.16C1544.86 1597.4 1556.04 1596.23 1563.53 1589.27Z" stroke="url(#paint1_linear_246_123)" stroke-width="4"/>
<path opacity="0.0434783" d="M1512.83 1587.67L1759.47 1382.32C1764.14 1378.43 1767.09 1372.85 1767.66 1366.8L1810.43 911.271C1810.88 906.495 1809.82 901.699 1807.41 897.554L1605.66 550.787C1601.32 543.335 1593.19 538.934 1584.58 539.385L1304.39 554.069C1295.78 554.52 1288.15 559.748 1284.62 567.612L1120.22 933.568C1118.25 937.943 1117.7 942.823 1118.65 947.525L1208.8 1396.09C1210 1402.05 1213.51 1407.29 1218.57 1410.67L1485.32 1589.12C1493.8 1594.78 1504.99 1594.2 1512.83 1587.67Z" stroke="url(#paint2_linear_246_123)" stroke-width="4"/>
<path opacity="0.057971" d="M1462.52 1584.56L1718.02 1394.22C1722.91 1390.58 1726.15 1385.15 1727.04 1379.13L1793.19 930.737C1793.89 925.977 1793.09 921.117 1790.88 916.841L1608.67 563.37C1604.72 555.717 1596.83 550.909 1588.22 550.909L1309.34 550.909C1300.73 550.909 1292.84 555.717 1288.9 563.37L1106.68 916.841C1104.48 921.117 1103.67 925.977 1104.37 930.737L1170.53 1379.13C1171.42 1385.15 1174.66 1390.58 1179.54 1394.22L1435.04 1584.56C1443.2 1590.64 1454.37 1590.64 1462.52 1584.56Z" stroke="url(#paint3_linear_246_123)" stroke-width="4"/>
<path opacity="0.0724638" d="M1412.7 1579.97L1676.16 1404.99C1681.24 1401.62 1684.77 1396.36 1685.98 1390.39L1774.89 950.313C1775.85 945.583 1775.29 940.671 1773.3 936.275L1610.77 577.184C1607.22 569.351 1599.6 564.15 1591.02 563.7L1314.2 549.192C1305.62 548.743 1297.5 553.119 1293.15 560.539L1093.98 900.673C1091.54 904.837 1090.47 909.664 1090.93 914.468L1133.35 1361.42C1133.92 1367.49 1136.89 1373.09 1141.59 1376.97L1385.32 1578.54C1393.13 1585 1404.25 1585.58 1412.7 1579.97Z" stroke="url(#paint4_linear_246_123)" stroke-width="4"/>
<path opacity="0.0869565" d="M1363.43 1573.94L1633.95 1414.63C1639.22 1411.53 1643.03 1406.47 1644.55 1400.55L1755.53 969.942C1756.73 965.253 1756.43 960.303 1754.66 955.797L1611.9 592.169C1608.76 584.177 1601.44 578.598 1592.9 577.7L1318.9 548.902C1310.36 548.004 1302.03 551.938 1297.3 559.103L1082.05 885.102C1079.39 889.143 1078.06 893.922 1078.27 898.759L1097.29 1343.03C1097.55 1349.13 1100.23 1354.88 1104.73 1359.01L1336.22 1571.08C1343.68 1577.91 1354.72 1579.07 1363.43 1573.94Z" stroke="url(#paint5_linear_246_123)" stroke-width="4"/>
<path opacity="0.101449" d="M1314.78 1566.51L1591.46 1423.13C1596.89 1420.32 1600.98 1415.45 1602.81 1409.62L1735.1 989.565C1736.56 984.932 1736.52 979.956 1734.97 975.351L1612.01 608.261C1609.29 600.131 1602.27 594.191 1593.8 592.849L1323.35 550.014C1314.88 548.673 1306.37 552.153 1301.26 559.044L1070.88 870.169C1067.99 874.072 1066.41 878.791 1066.37 883.648L1062.38 1324.02C1062.32 1330.14 1064.71 1336.03 1069 1340.38L1287.83 1562.24C1294.91 1569.42 1305.83 1571.15 1314.78 1566.51Z" stroke="url(#paint6_linear_246_123)" stroke-width="4"/>
<path opacity="0.115942" d="M1266.84 1557.74L1548.74 1430.48C1554.33 1427.96 1558.67 1423.32 1560.82 1417.58L1713.63 1009.12C1715.34 1004.56 1715.55 999.57 1714.24 994.876L1611.04 625.39C1608.74 617.144 1602.05 610.86 1593.67 609.08L1327.48 552.499C1319.11 550.719 1310.44 553.738 1304.98 560.334L1060.42 855.903C1057.31 859.657 1055.48 864.302 1055.18 869.166L1028.65 1304.46C1028.28 1310.58 1030.36 1316.59 1034.43 1321.17L1240.2 1552.08C1246.89 1559.58 1257.68 1561.88 1266.84 1557.74Z" stroke="url(#paint7_linear_246_123)" stroke-width="4"/>
<path opacity="0.130435" d="M1219.66 1547.68L1505.87 1436.7C1511.59 1434.48 1516.19 1430.06 1518.64 1424.44L1691.12 1028.56C1693.07 1024.08 1693.55 1019.09 1692.47 1014.32L1608.96 643.493C1607.08 635.153 1600.73 628.543 1592.47 626.33L1331.23 556.331C1322.97 554.119 1314.17 556.669 1308.37 562.952L1050.63 842.342C1047.32 845.936 1045.23 850.492 1044.68 855.351L996.12 1284.43C995.43 1290.53 997.205 1296.65 1001.05 1301.43L1193.42 1540.65C1199.7 1548.46 1210.32 1551.3 1219.66 1547.68Z" stroke="url(#paint8_linear_246_123)" stroke-width="4"/>
<path opacity="0.144928" d="M1173.31 1536.37L1462.89 1441.76C1468.74 1439.85 1473.57 1435.69 1476.32 1430.19L1667.58 1047.82C1669.78 1043.44 1670.51 1038.46 1669.68 1033.63L1605.7 662.493C1604.25 654.081 1598.26 647.164 1590.14 644.526L1334.52 561.471C1326.41 558.833 1317.49 560.908 1311.38 566.861L1041.47 829.511C1037.96 832.933 1035.63 837.389 1034.82 842.228L964.806 1263.99C963.799 1270.05 965.261 1276.27 968.866 1281.24L1147.54 1528C1153.4 1536.09 1163.81 1539.47 1173.31 1536.37Z" stroke="url(#paint9_linear_246_123)" stroke-width="4"/>
<path opacity="0.15942" d="M1127.84 1523.88L1419.89 1445.7C1425.83 1444.1 1430.89 1440.19 1433.93 1434.84L1643.03 1066.86C1645.47 1062.58 1646.46 1057.63 1645.87 1052.74L1601.24 682.321C1600.22 673.859 1594.6 666.654 1586.65 663.6L1337.3 567.883C1329.34 564.829 1320.34 566.425 1313.92 572.031L1032.89 817.442C1029.19 820.68 1026.62 825.022 1025.56 829.83L934.721 1243.21C933.4 1249.22 934.544 1255.52 937.898 1260.68L1102.61 1514.2C1108.04 1522.55 1118.22 1526.46 1127.84 1523.88Z" stroke="url(#paint10_linear_246_123)" stroke-width="4"/>
<path opacity="0.173913" d="M1083.32 1510.27L1376.9 1448.5C1382.94 1447.23 1388.21 1443.59 1391.54 1438.4L1617.5 1085.6C1620.16 1081.44 1621.42 1076.54 1621.08 1071.61L1595.54 702.898C1594.95 694.408 1589.72 686.937 1581.95 683.476L1339.48 575.524C1331.71 572.063 1322.66 573.177 1315.96 578.421L1024.86 806.156C1020.97 809.2 1018.16 813.415 1016.85 818.178L905.876 1222.17C904.242 1228.11 905.065 1234.47 908.159 1239.8L1058.69 1499.31C1063.68 1507.9 1073.61 1512.32 1083.32 1510.27Z" stroke="url(#paint11_linear_246_123)" stroke-width="4"/>
<path opacity="0.188406" d="M1039.8 1495.6L1334 1450.19C1340.11 1449.24 1345.58 1445.89 1349.18 1440.87L1590.99 1104.01C1593.88 1099.98 1595.4 1095.13 1595.3 1090.17L1588.56 724.149C1588.4 715.654 1583.57 707.937 1576 704.08L1341.02 584.349C1333.45 580.492 1324.37 581.123 1317.4 585.989L1017.32 795.676C1013.25 798.515 1010.22 802.591 1008.66 807.297L878.27 1200.93C876.328 1206.79 876.826 1213.19 879.652 1218.68L1015.84 1483.4C1020.36 1492.2 1030.02 1497.12 1039.8 1495.6Z" stroke="url(#paint12_linear_246_123)" stroke-width="4"/>
<path opacity="0.202899" d="M997.317 1479.95L1291.25 1450.78C1297.4 1450.17 1303.06 1447.1 1306.92 1442.27L1563.55 1122.04C1566.66 1118.15 1568.43 1113.37 1568.59 1108.39L1580.29 746.001C1580.56 737.523 1576.15 729.582 1568.8 725.341L1341.86 594.315C1334.51 590.074 1325.43 590.22 1318.22 594.697L1010.23 786.025C1006 788.65 1002.74 792.575 1000.93 797.21L851.912 1179.57C849.666 1185.34 849.836 1191.76 852.385 1197.4L974.089 1466.54C978.154 1475.53 987.5 1480.92 997.317 1479.95Z" stroke="url(#paint13_linear_246_123)" stroke-width="4"/>
<path opacity="0.217391" d="M955.921 1463.36L1248.69 1450.29C1254.88 1450.01 1260.7 1447.25 1264.82 1442.62L1535.19 1139.62C1538.51 1135.9 1540.53 1131.19 1540.95 1126.21L1570.69 768.37C1571.4 759.93 1567.4 751.787 1560.3 747.175L1341.93 605.366C1334.83 600.753 1325.77 600.417 1318.34 604.491L1003.54 777.216C999.159 779.617 995.682 783.378 993.63 787.93L826.792 1158.16C824.246 1163.81 824.088 1170.25 826.353 1176.02L933.487 1448.79C937.082 1457.94 946.098 1463.8 955.921 1463.36Z" stroke="url(#paint14_linear_246_123)" stroke-width="4"/>
<path opacity="0.231884" d="M915.653 1445.92L1206.39 1448.73C1212.59 1448.79 1218.56 1446.34 1222.94 1441.94L1505.94 1156.72C1509.47 1153.17 1511.74 1148.55 1512.41 1143.59L1559.77 791.181C1560.89 782.801 1557.33 774.48 1550.49 769.51L1341.2 617.453C1334.36 612.483 1325.35 611.667 1317.72 615.327L997.2 769.266C992.682 771.435 988.997 775.021 986.704 779.477L802.906 1136.77C800.066 1142.29 799.578 1148.72 801.554 1154.61L894.071 1430.24C897.19 1439.53 905.853 1445.83 915.653 1445.92Z" stroke="url(#paint15_linear_246_123)" stroke-width="4"/>
<path opacity="0.246377" d="M876.545 1427.7L1164.39 1446.15C1170.6 1446.55 1176.7 1444.41 1181.31 1440.24L1475.84 1173.3C1479.57 1169.92 1482.09 1165.42 1483.01 1160.47L1547.49 814.352C1549.03 806.055 1545.91 797.577 1539.35 792.266L1339.61 630.518C1333.05 625.207 1324.11 623.914 1316.32 627.152L991.168 762.185C986.522 764.114 982.637 767.513 980.108 771.862L780.24 1115.46C777.113 1120.83 776.297 1127.25 777.976 1133.24L855.871 1410.95C858.509 1420.36 866.798 1427.07 876.545 1427.7Z" stroke="url(#paint16_linear_246_123)" stroke-width="4"/>
<path opacity="0.26087" d="M838.633 1408.76L1122.76 1442.56C1128.94 1443.29 1135.16 1441.49 1140 1437.55L1444.93 1189.31C1448.85 1186.12 1451.6 1181.73 1452.78 1176.82L1533.86 837.808C1535.82 829.614 1533.14 821.003 1526.88 815.366L1337.12 644.507C1330.86 638.87 1322.02 637.107 1314.07 639.912L985.395 755.985C980.634 757.666 976.559 760.868 973.797 765.096L758.784 1094.31C755.378 1099.52 754.233 1105.9 755.611 1111.97L818.919 1391.01C821.073 1400.5 828.968 1407.61 838.633 1408.76Z" stroke="url(#paint17_linear_246_123)" stroke-width="4"/>
<path opacity="0.275362" d="M801.939 1389.18L1081.54 1437.98C1087.68 1439.05 1094 1437.58 1099.04 1433.9L1413.24 1204.7C1417.33 1201.71 1420.33 1197.45 1421.75 1192.59L1518.87 861.465C1521.24 853.395 1519.01 844.676 1513.06 838.729L1333.69 659.357C1327.74 653.41 1319.03 651.183 1310.96 653.55L979.832 750.668C974.968 752.095 970.712 755.088 967.724 759.183L738.516 1073.38C734.838 1078.42 733.367 1084.74 734.44 1090.89L783.236 1370.48C784.903 1380.04 792.385 1387.52 801.939 1389.18Z" stroke="url(#paint18_linear_246_123)" stroke-width="4"/>
<path opacity="0.289855" d="M766.486 1369.04L1040.77 1432.46C1046.86 1433.87 1053.26 1432.74 1058.5 1429.33L1380.8 1219.44C1385.07 1216.66 1388.29 1212.55 1389.97 1207.74L1502.52 885.249C1505.29 877.323 1503.52 868.519 1497.9 862.28L1329.28 675.01C1323.66 668.771 1315.09 666.088 1306.92 668.011L974.429 746.242C969.476 747.407 965.048 750.183 961.841 754.134L719.414 1052.73C715.473 1057.58 713.678 1063.83 714.442 1070.04L748.84 1349.45C750.021 1359.04 757.071 1366.87 766.486 1369.04Z" stroke="url(#paint19_linear_246_123)" stroke-width="4"/>
<path opacity="0.304348" d="M732.293 1348.42L1000.5 1426.03C1006.52 1427.77 1012.99 1426.98 1018.41 1423.85L1347.67 1233.49C1352.09 1230.94 1355.54 1226.98 1357.46 1222.25L1484.83 909.082C1487.98 901.32 1486.67 892.455 1481.4 885.942L1323.86 691.403C1318.59 684.891 1310.19 681.762 1301.94 683.236L969.138 742.707C964.109 743.606 959.522 746.154 956.101 749.949L701.451 1032.44C697.258 1037.09 695.143 1043.25 695.595 1049.5L715.746 1327.98C716.441 1337.59 723.044 1345.74 732.293 1348.42Z" stroke="url(#paint20_linear_246_123)" stroke-width="4"/>
<path opacity="0.318841" d="M699.373 1327.37L960.788 1418.72C966.711 1420.79 973.223 1420.35 978.814 1417.5L1313.88 1246.83C1318.45 1244.5 1322.11 1240.71 1324.28 1236.06L1465.79 932.885C1469.33 925.306 1468.47 916.405 1463.56 909.638L1317.4 708.472C1312.48 701.706 1304.28 698.141 1295.98 699.164L963.913 740.062C958.821 740.689 954.086 743 950.459 746.628L684.6 1012.55C680.164 1016.99 677.733 1023.05 677.871 1029.32L683.966 1306.17C684.177 1315.76 690.318 1324.21 699.373 1327.37Z" stroke="url(#paint21_linear_246_123)" stroke-width="4"/>
<path opacity="0.333333" d="M667.737 1305.99L921.66 1410.57C927.472 1412.97 934.011 1412.88 939.756 1410.33L1279.47 1259.41C1284.18 1257.32 1288.05 1253.71 1290.46 1249.16L1445.43 956.585C1449.34 949.208 1448.94 940.293 1444.39 933.292L1309.88 726.153C1305.33 719.152 1297.35 715.164 1289.02 715.733L958.706 738.301C953.567 738.652 948.695 740.718 944.87 744.168L668.83 993.136C664.162 997.346 661.421 1003.28 661.244 1009.57L653.506 1284.07C653.236 1293.63 658.902 1302.35 667.737 1305.99Z" stroke="url(#paint22_linear_246_123)" stroke-width="4"/>
<path opacity="0.347826" d="M637.387 1284.34L883.156 1401.63C888.84 1404.34 895.387 1404.6 901.27 1402.36L1244.5 1271.22C1249.34 1269.37 1253.4 1265.95 1256.05 1261.51L1423.76 980.106C1428.03 972.949 1428.09 964.046 1423.92 956.831L1301.26 744.38C1297.1 737.165 1289.36 732.767 1281.03 732.882L953.469 737.42C948.297 737.492 943.3 739.305 939.285 742.566L654.102 974.247C649.214 978.218 646.168 984.02 645.675 990.299L624.363 1261.78C623.618 1271.27 628.796 1280.24 637.387 1284.34Z" stroke="url(#paint23_linear_246_123)" stroke-width="4"/>
<path opacity="0.362319" d="M608.324 1262.5L845.313 1391.93C850.851 1394.95 857.388 1395.57 863.393 1393.63L1209.01 1282.22C1213.96 1280.63 1218.22 1277.41 1221.1 1273.08L1400.81 1003.38C1405.42 996.459 1405.93 987.591 1402.16 980.183L1291.55 763.089C1287.77 755.681 1280.29 750.887 1271.98 750.55L948.156 737.41C942.966 737.199 937.857 738.752 933.661 741.815L640.378 955.941C635.282 959.662 631.938 965.312 631.13 971.57L596.537 1239.37C595.323 1248.78 600.003 1257.96 608.324 1262.5Z" stroke="url(#paint24_linear_246_123)" stroke-width="4"/>
<path opacity="0.376812" d="M580.545 1240.55L808.165 1381.52C813.539 1384.84 820.047 1385.81 826.159 1384.2L1173.05 1292.4C1178.09 1291.06 1182.53 1288.05 1185.64 1283.86L1376.6 1026.33C1381.54 1019.67 1382.51 1010.86 1379.13 1003.28L1280.71 782.212C1277.34 774.632 1270.14 769.458 1261.88 768.671L942.723 738.259C937.529 737.764 932.322 739.05 927.955 741.905L627.619 938.268C622.327 941.727 618.693 947.212 617.57 953.433L570.02 1216.91C568.343 1226.2 572.516 1235.58 580.545 1240.55Z" stroke="url(#paint25_linear_246_123)" stroke-width="4"/>
<path opacity="0.391304" d="M554.04 1218.55L771.74 1370.44C776.935 1374.06 783.395 1375.38 789.595 1374.09L1136.66 1301.72C1141.79 1300.65 1146.4 1297.86 1149.73 1293.81L1351.16 1048.89C1356.42 1042.5 1357.84 1033.77 1354.87 1026.04L1268.75 801.683C1265.78 793.953 1258.89 788.415 1250.7 787.182L937.124 739.953C931.942 739.173 926.649 740.185 922.121 742.823L615.777 921.276C610.304 924.465 606.388 929.769 604.953 935.938L544.799 1194.48C542.668 1203.64 546.328 1213.17 554.04 1218.55Z" stroke="url(#paint26_linear_246_123)" stroke-width="4"/>
<path opacity="0.405797" d="M528.8 1196.58L736.068 1358.73C741.067 1362.64 747.459 1364.31 753.732 1363.35L1099.9 1310.18C1105.1 1309.38 1109.88 1306.82 1113.42 1302.93L1324.53 1071C1330.09 1064.89 1331.95 1056.27 1329.4 1048.41L1255.65 821.434C1253.1 813.577 1246.52 807.693 1238.43 806.019L931.316 742.475C926.161 741.409 920.797 742.143 916.118 744.554L604.809 905.012C599.168 907.92 594.979 913.029 593.233 919.131L520.859 1172.14C518.283 1181.15 521.424 1190.81 528.8 1196.58Z" stroke="url(#paint27_linear_246_123)" stroke-width="4"/>
<path opacity="0.42029" d="M504.808 1174.71L701.174 1346.46C705.96 1350.64 712.266 1352.66 718.594 1352.03L1062.82 1317.76C1068.08 1317.24 1073 1314.92 1076.75 1311.19L1296.75 1092.59C1302.6 1086.78 1304.89 1078.29 1302.76 1070.33L1241.42 841.405C1239.28 833.443 1233.05 827.231 1225.08 825.123L925.259 745.812C920.147 744.46 914.725 744.91 909.907 747.087L594.666 889.523C588.871 892.142 584.419 897.042 582.366 903.061L498.18 1149.98C495.171 1158.8 497.789 1168.57 504.808 1174.71Z" stroke="url(#paint28_linear_246_123)" stroke-width="4"/>
<path opacity="0.434783" d="M482.043 1153.01L667.078 1333.65C671.637 1338.1 677.838 1340.46 684.203 1340.17L1025.46 1324.45C1030.77 1324.21 1035.83 1322.13 1039.78 1318.58L1267.86 1113.61C1273.97 1108.11 1276.69 1099.76 1274.98 1091.72L1226.05 861.525C1224.34 853.48 1218.46 846.96 1210.64 844.426L918.91 749.937C913.856 748.301 908.392 748.464 903.445 750.399L585.295 874.844C579.361 877.165 574.656 881.843 572.301 887.764L476.738 1128.05C473.307 1136.68 475.4 1146.52 482.043 1153.01Z" stroke="url(#paint29_linear_246_123)" stroke-width="4"/>
<path opacity="0.449275" d="M460.484 1131.54L633.801 1320.37C638.118 1325.07 644.196 1327.77 650.58 1327.82L987.889 1330.24C993.226 1330.28 998.41 1328.46 1002.55 1325.1L1237.89 1133.99C1244.26 1128.81 1247.39 1120.64 1246.11 1112.53L1209.55 881.733C1208.27 873.628 1202.77 866.821 1195.11 863.87L912.232 754.834C907.252 752.914 901.759 752.786 896.695 754.472L576.646 861.015C570.588 863.032 565.642 867.475 562.989 873.283L456.508 1106.43C452.668 1114.84 454.234 1124.73 460.484 1131.54Z" stroke="url(#paint30_linear_246_123)" stroke-width="4"/>
<path opacity="0.463768" d="M440.101 1110.37L601.357 1306.66C605.418 1311.6 611.354 1314.63 617.74 1315.02L950.143 1335.13C955.496 1335.46 960.794 1333.9 965.121 1330.73L1206.91 1153.67C1213.51 1148.84 1217.05 1140.86 1216.19 1132.71L1191.94 901.963C1191.08 893.822 1185.96 886.749 1178.5 883.391L905.185 760.475C900.293 758.275 894.788 757.854 889.619 759.283L568.661 848.069C562.496 849.774 557.319 853.971 554.374 859.65L437.454 1085.18C433.219 1093.35 434.26 1103.26 440.101 1110.37Z" stroke="url(#paint31_linear_246_123)" stroke-width="4"/>
<path opacity="0.478261" d="M420.865 1089.56L569.76 1292.57C573.552 1297.74 579.328 1301.09 585.697 1301.82L912.279 1339.11C917.633 1339.72 923.032 1338.43 927.534 1335.47L1174.95 1172.62C1181.77 1168.13 1185.7 1160.36 1185.27 1152.21L1173.22 922.156C1172.79 914.001 1168.07 906.683 1160.81 902.931L897.733 766.835C892.946 764.359 887.442 763.642 882.181 764.81L561.287 836.036C555.029 837.425 549.634 841.363 546.404 846.9L419.545 1064.36C414.93 1072.28 415.448 1082.17 420.865 1089.56Z" stroke="url(#paint32_linear_246_123)" stroke-width="4"/>
<path opacity="0.492754" d="M402.743 1069.17L539.023 1278.15C542.532 1283.53 548.131 1287.2 554.465 1288.27L874.349 1342.18C879.689 1343.08 885.176 1342.07 889.843 1339.32L1142.07 1190.78C1149.09 1186.64 1153.4 1179.11 1153.4 1170.96L1153.4 942.247C1153.4 934.101 1149.09 926.563 1142.07 922.429L889.843 773.886C885.176 771.138 879.689 770.124 874.349 771.024L554.465 824.942C548.131 826.01 542.532 829.678 539.023 835.059L402.743 1044.04C397.763 1051.68 397.763 1061.53 402.743 1069.17Z" stroke="url(#paint33_linear_246_123)" stroke-width="4"/>
<path opacity="0.507246" d="M385.695 1049.26L509.15 1263.45C512.364 1269.03 517.769 1273 524.051 1274.41L836.402 1344.35C841.714 1345.54 847.275 1344.81 852.097 1342.28L1108.33 1208.1C1115.53 1204.33 1120.21 1197.05 1120.63 1188.93L1132.51 962.182C1132.94 954.067 1129.05 946.331 1122.29 941.829L881.481 781.601C876.95 778.586 871.495 777.275 866.088 777.903L548.137 814.813C541.743 815.556 535.952 818.944 532.172 824.154L387.005 1024.27C381.678 1031.61 381.165 1041.4 385.695 1049.26Z" stroke="url(#paint34_linear_246_123)" stroke-width="4"/>
<path opacity="0.521739" d="M369.684 1029.88L480.147 1248.52C483.056 1254.28 488.25 1258.55 494.461 1260.29L798.489 1345.62C803.756 1347.1 809.379 1346.65 814.346 1344.36L1073.78 1224.55C1081.14 1221.15 1086.17 1214.13 1087.01 1206.07L1110.58 981.898C1111.42 973.838 1107.97 965.927 1101.48 961.074L872.617 789.946C868.235 786.669 862.829 785.062 857.369 785.413L542.243 805.667C535.806 806.08 529.838 809.179 525.795 814.206L372.289 1005.1C366.632 1012.13 365.614 1021.83 369.684 1029.88Z" stroke="url(#paint35_linear_246_123)" stroke-width="4"/>
<path opacity="0.536232" d="M354.665 1011.09L452.015 1233.41C454.608 1239.33 459.574 1243.89 465.696 1245.96L760.657 1346C765.866 1347.76 771.535 1347.61 776.637 1345.55L1038.48 1240.09C1045.98 1237.07 1051.34 1230.33 1052.61 1222.35L1087.61 1001.34C1088.88 993.359 1085.86 985.298 1079.66 980.109L863.22 798.89C859.003 795.359 853.66 793.457 848.16 793.527L536.722 797.519C530.258 797.602 524.127 800.402 519.831 805.233L358.547 986.582C352.578 993.294 351.062 1002.87 354.665 1011.09Z" stroke="url(#paint36_linear_246_123)" stroke-width="4"/>
<path opacity="0.550725" d="M340.595 992.94L424.755 1218.16C427.023 1224.23 431.745 1229.06 437.761 1231.47L722.959 1345.5C728.094 1347.55 733.796 1347.69 739.022 1345.88L1002.5 1254.68C1010.12 1252.04 1015.8 1245.61 1017.47 1237.72L1063.65 1020.46C1065.33 1012.58 1062.76 1004.39 1056.87 998.884L853.266 808.402C849.227 804.624 843.964 802.427 838.438 802.214L531.516 790.386C525.042 790.136 518.763 792.629 514.223 797.251L345.732 968.771C339.47 975.146 337.467 984.57 340.595 992.94Z" stroke="url(#paint37_linear_246_123)" stroke-width="4"/>
<path opacity="0.565217" d="M327.425 975.468L398.363 1202.84C400.297 1209.03 404.761 1214.13 410.653 1216.86L685.442 1344.13C690.487 1346.47 696.208 1346.9 701.545 1345.35L965.888 1268.29C973.605 1266.04 979.588 1259.93 981.668 1252.16L1038.73 1039.2C1040.81 1031.44 1038.69 1023.15 1033.13 1017.35L842.728 818.444C838.883 814.428 833.714 811.94 828.177 811.441L526.563 784.274C520.096 783.691 513.684 785.869 508.91 790.27L333.792 951.707C327.256 957.732 324.778 966.983 327.425 975.468Z" stroke="url(#paint38_linear_246_123)" stroke-width="4"/>
<path opacity="0.57971" d="M315.107 958.72L372.834 1187.47C374.427 1193.78 378.617 1199.12 384.368 1202.17L648.153 1341.92C653.093 1344.54 658.817 1345.27 664.256 1343.97L928.715 1280.9C936.511 1279.04 942.777 1273.26 945.254 1265.64L1012.88 1057.52C1015.35 1049.9 1013.68 1041.54 1008.47 1035.45L831.586 828.981C827.948 824.736 822.889 821.96 817.354 821.174L521.802 779.188C515.359 778.272 508.83 780.129 503.833 784.298L322.674 935.431C315.885 941.095 312.944 950.148 315.107 958.72Z" stroke="url(#paint39_linear_246_123)" stroke-width="4"/>
<path opacity="0.594203" d="M303.586 942.734L348.157 1172.12C349.401 1178.52 353.304 1184.09 358.896 1187.45L611.134 1338.88C615.955 1341.77 621.668 1342.8 627.195 1341.77L891.04 1292.49C898.896 1291.02 905.427 1285.59 908.29 1278.12L986.124 1075.36C988.987 1067.9 987.774 1059.49 982.918 1053.14L819.815 839.976C816.398 835.511 811.464 832.452 805.946 831.377L517.171 775.13C510.769 773.883 504.139 775.413 498.931 779.338L312.321 919.98C305.3 925.272 301.909 934.103 303.586 942.734Z" stroke="url(#paint40_linear_246_123)" stroke-width="4"/>
<path opacity="0.608696" d="M292.811 927.55L324.321 1156.82C325.211 1163.3 328.814 1169.09 334.231 1172.75L574.432 1335.03C579.118 1338.19 584.806 1339.52 590.409 1338.76L852.932 1303.04C860.826 1301.96 867.602 1296.88 870.843 1289.6L958.515 1092.69C961.755 1085.41 960.998 1076.97 956.514 1070.39L807.398 851.395C804.216 846.72 799.423 843.382 793.935 842.018L512.61 772.101C506.266 770.524 499.551 771.722 494.143 775.393L302.677 905.39C295.444 910.301 291.621 918.888 292.811 927.55Z" stroke="url(#paint41_linear_246_123)" stroke-width="4"/>
<path opacity="0.623188" d="M282.725 913.197L301.312 1141.63C301.843 1148.16 305.134 1154.15 310.359 1158.1L538.089 1330.39C542.625 1333.83 548.272 1335.46 553.939 1334.97L814.454 1312.53C822.366 1311.85 829.368 1307.13 832.973 1300.06L930.088 1109.46C933.694 1102.38 933.393 1093.95 929.294 1087.14L794.319 863.196C791.383 858.324 786.746 854.713 781.303 853.06L508.059 770.094C501.79 768.191 495.006 769.051 489.411 772.459L293.684 891.689C286.26 896.212 282.02 904.533 282.725 913.197Z" stroke="url(#paint42_linear_246_123)" stroke-width="4"/>
<path opacity="0.637681" d="M273.274 899.706L279.116 1126.57C279.285 1133.14 282.252 1139.32 287.269 1143.56L502.147 1325C506.519 1328.7 512.11 1330.63 517.829 1330.42L775.673 1320.96C783.585 1320.67 790.791 1316.33 794.749 1309.47L900.889 1125.63C904.847 1118.78 905.001 1110.37 901.297 1103.37L780.565 875.343C777.888 870.285 773.421 866.408 768.038 864.467L503.46 769.102C497.282 766.875 490.447 767.395 484.678 770.531L285.283 878.906C277.69 883.033 273.052 891.068 273.274 899.706Z" stroke="url(#paint43_linear_246_123)" stroke-width="4"/>
<path opacity="0.652174" d="M264.399 887.1L257.713 1111.71C257.517 1118.29 260.15 1124.63 264.944 1129.14L466.644 1318.88C470.838 1322.83 476.358 1325.05 482.115 1325.13L736.654 1328.31C744.544 1328.41 751.934 1324.46 756.231 1317.84L870.959 1141.17C875.256 1134.56 875.861 1126.2 872.562 1119.03L766.123 887.793C763.715 882.563 759.434 878.426 754.124 876.199L498.753 769.11C492.683 766.564 485.814 766.741 479.883 769.596L277.413 867.06C269.673 870.786 264.655 878.514 264.399 887.1Z" stroke="url(#paint44_linear_246_123)" stroke-width="4"/>
<path opacity="0.666667" d="M256.041 875.403L237.083 1097.07C236.521 1103.64 238.809 1110.14 243.365 1114.91L431.618 1312.06C435.619 1316.25 441.053 1318.77 446.836 1319.13L697.462 1334.59C705.311 1335.07 712.863 1331.51 717.486 1325.15L840.344 1156.05C844.966 1149.69 846.018 1141.41 843.132 1134.09L750.982 900.511C748.855 895.121 744.774 890.733 739.553 888.223L493.882 770.105C487.936 767.246 481.048 767.079 474.97 769.645L270.012 856.174C262.148 859.494 256.769 866.897 256.041 875.403Z" stroke="url(#paint45_linear_246_123)" stroke-width="4"/>
<path opacity="0.681159" d="M248.143 864.632L217.205 1082.69C216.276 1089.24 218.21 1095.87 222.514 1100.89L397.104 1304.57C400.899 1309 406.233 1311.82 412.028 1312.46L658.163 1339.8C665.951 1340.66 673.644 1337.5 678.576 1331.41L809.092 1170.24C814.024 1164.15 815.515 1155.97 813.05 1148.53L735.135 913.455C733.301 907.921 729.433 903.29 724.315 900.498L488.791 772.07C482.985 768.903 476.097 768.39 469.885 770.66L263.02 846.26C255.053 849.172 249.335 856.233 248.143 864.632Z" stroke="url(#paint46_linear_246_123)" stroke-width="4"/>
<path opacity="0.695652" d="M240.644 854.8L198.052 1068.62C196.757 1075.12 198.33 1081.87 202.368 1087.12L363.137 1296.44C366.712 1301.1 371.93 1304.21 377.724 1305.14L618.82 1343.94C626.529 1345.18 634.341 1342.42 639.566 1336.62L777.251 1183.7C782.476 1177.9 784.4 1169.84 782.361 1162.3L718.578 926.585C717.045 920.92 713.405 916.055 708.403 912.987L483.425 774.979C477.774 771.512 470.902 770.653 464.572 772.62L256.375 837.329C248.326 839.831 242.291 846.534 240.644 854.8Z" stroke="url(#paint47_linear_246_123)" stroke-width="4"/>
<path opacity="0.710145" d="M233.485 845.921L179.601 1054.89C177.941 1061.32 179.146 1068.16 182.905 1073.64L329.748 1287.72C333.089 1292.59 338.177 1295.99 343.957 1297.21L579.497 1347.02C587.108 1348.63 595.017 1346.28 600.518 1340.78L744.872 1196.43C750.373 1190.92 752.72 1183.02 751.111 1175.4L701.308 939.864C700.085 934.084 696.686 928.997 691.815 925.655L477.732 778.813C472.252 775.054 465.414 773.849 458.979 775.508L250.014 829.393C241.907 831.483 235.576 837.814 233.485 845.921Z" stroke="url(#paint48_linear_246_123)" stroke-width="4"/>
<path opacity="0.724638" d="M226.606 837.999L161.821 1041.52C159.801 1047.87 160.632 1054.78 164.099 1060.47L296.964 1278.44C300.06 1283.52 305.003 1287.2 310.755 1288.71L540.255 1349.05C547.751 1351.02 555.735 1349.09 561.494 1343.9L712.002 1208.38C717.761 1203.2 720.522 1195.46 719.345 1187.8L683.321 953.249C682.418 947.371 679.273 942.07 674.546 938.461L471.661 783.539C466.366 779.496 459.579 777.948 453.055 779.294L243.876 822.45C235.732 824.13 229.129 830.075 226.606 837.999Z" stroke="url(#paint49_linear_246_123)" stroke-width="4"/>
<path opacity="0.73913" d="M219.947 831.04L144.685 1028.56C142.307 1034.8 142.759 1041.77 145.923 1047.65L264.814 1268.63C267.652 1273.9 272.434 1277.86 278.146 1279.67L501.156 1350.06C508.518 1352.39 516.555 1350.86 522.554 1346L678.692 1219.56C684.692 1214.71 687.854 1207.16 687.112 1199.48L664.621 966.705C664.045 960.743 661.166 955.242 656.597 951.37L465.161 789.132C460.067 784.814 453.347 782.924 446.749 783.952L237.898 816.504C229.739 817.775 222.888 823.323 219.947 831.04Z" stroke="url(#paint50_linear_246_123)" stroke-width="4"/>
<path opacity="0.753623" d="M213.451 825.042L128.162 1016.03C125.432 1022.14 125.501 1029.14 128.351 1035.2L233.323 1258.34C235.891 1263.8 240.499 1268.03 246.156 1270.12L462.261 1350.06C469.472 1352.73 477.539 1351.62 483.759 1347.1L644.996 1229.95C651.216 1225.43 654.767 1218.1 654.459 1210.42L645.21 980.189C644.968 974.163 642.368 968.473 637.971 964.344L458.189 795.555C453.309 790.973 446.674 788.745 440.017 789.452L232.022 811.549C223.87 812.415 216.794 817.556 213.451 825.042Z" stroke="url(#paint51_linear_246_123)" stroke-width="4"/>
<path opacity="0.768116" d="M207.057 820.003L112.218 1003.96C109.143 1009.92 108.826 1016.93 111.352 1023.15L202.511 1247.61C204.797 1253.23 209.217 1257.73 214.806 1260.11L423.624 1349.08C430.668 1352.08 438.744 1351.38 445.165 1347.2L610.962 1239.54C617.384 1235.37 621.309 1228.27 621.433 1220.62L625.093 993.667C625.191 987.593 622.882 981.727 618.67 977.349L450.698 802.776C446.045 797.94 439.511 795.378 432.811 795.761L226.187 807.58C218.061 808.045 210.787 812.769 207.057 820.003Z" stroke="url(#paint52_linear_246_123)" stroke-width="4"/>
<path opacity="0.782609" d="M200.709 815.913L96.8222 992.366C93.4086 998.164 92.705 1005.17 94.8968 1011.53L172.4 1236.47C174.393 1242.26 178.611 1247.01 184.119 1249.68L385.303 1347.13C392.164 1350.45 400.227 1350.16 406.83 1346.35L576.643 1248.31C583.246 1244.49 587.53 1237.66 588.082 1230.05L604.279 1007.1C604.722 1000.99 602.715 994.964 598.7 990.344L442.646 810.754C438.233 805.675 431.817 802.783 425.089 802.841L220.333 804.583C212.256 804.651 204.807 808.952 200.709 815.913Z" stroke="url(#paint53_linear_246_123)" stroke-width="4"/>
<path opacity="0.797101" d="M194.35 812.766L81.9388 981.284C78.1956 986.896 77.1044 993.868 78.9542 1000.35L143.005 1224.98C144.696 1230.91 148.697 1235.91 154.111 1238.86L347.351 1344.26C354.015 1347.89 362.043 1348 368.806 1344.56L542.089 1256.26C548.852 1252.82 553.479 1246.26 554.456 1238.73L582.775 1020.45C583.568 1014.33 581.873 1008.15 578.07 1003.3L433.994 819.453C429.833 814.143 423.552 810.928 416.812 810.658L214.404 802.548C206.396 802.227 198.797 806.098 194.35 812.766Z" stroke="url(#paint54_linear_246_123)" stroke-width="4"/>
<path opacity="0.811594" d="M187.924 810.545L67.5327 970.728C63.4696 976.134 61.9916 983.054 63.4918 989.649L114.342 1213.17C115.72 1219.23 119.492 1224.47 124.798 1227.71L309.819 1340.48C316.271 1344.42 324.243 1344.93 331.145 1341.86L507.351 1263.4C514.253 1260.33 519.206 1254.06 520.6 1246.64L560.593 1033.68C561.74 1027.57 560.367 1021.26 556.787 1016.18L424.705 828.826C420.808 823.299 414.676 819.767 407.94 819.169L208.343 801.453C200.423 800.75 192.701 804.188 187.924 810.545Z" stroke="url(#paint55_linear_246_123)" stroke-width="4"/>
<path opacity="0.826087" d="M181.379 809.235L53.5702 960.719C49.1979 965.901 47.335 972.749 48.479 979.432L86.4239 1201.09C87.4807 1207.26 91.0095 1212.74 96.195 1216.25L272.759 1335.85C278.985 1340.07 286.88 1340.98 293.9 1338.28L472.48 1269.73C479.501 1267.04 484.76 1261.08 486.565 1253.78L537.748 1046.75C539.252 1040.67 538.21 1034.24 534.865 1028.95L414.745 838.835C411.124 833.103 405.157 829.261 398.441 828.336L202.098 801.282C194.285 800.206 186.465 803.208 181.379 809.235Z" stroke="url(#paint56_linear_246_123)" stroke-width="4"/>
<path opacity="0.84058" d="M174.662 808.814L40.0127 951.269C35.3431 956.21 33.0982 962.963 33.8805 969.715L59.259 1188.78C59.9857 1195.05 63.2588 1200.75 68.311 1204.54L236.214 1330.4C242.202 1334.89 249.999 1336.18 257.117 1333.87L437.525 1275.25C444.642 1272.94 450.189 1267.31 452.395 1260.16L514.253 1059.64C516.115 1053.61 515.414 1047.08 512.315 1041.57L404.083 849.429C400.746 843.506 394.961 839.363 388.279 838.111L195.613 802.007C187.926 800.566 180.034 803.131 174.662 808.814Z" stroke="url(#paint57_linear_246_123)" stroke-width="4"/>
<path opacity="0.855072" d="M167.723 809.262L26.8251 942.396C21.8711 947.077 19.2484 953.714 19.6643 960.517L32.856 1176.29C33.2445 1182.65 36.2496 1188.56 41.1558 1192.61L200.23 1324.16C205.968 1328.91 213.648 1330.58 220.84 1328.65L402.534 1279.97C409.726 1278.04 415.541 1272.75 418.137 1265.77L490.126 1072.31C492.347 1066.35 491.994 1059.73 489.154 1054.03L392.69 860.565C389.649 854.466 384.059 850.029 377.428 848.452L188.84 803.603C181.297 801.81 173.358 803.937 167.723 809.262Z" stroke="url(#paint58_linear_246_123)" stroke-width="4"/>
<path opacity="0.869565" d="M160.511 810.553L13.9676 934.111C8.7432 938.516 5.74808 945.016 5.79399 951.85L7.2169 1163.67C7.26005 1170.09 9.98489 1176.2 14.7326 1180.52L164.845 1317.18C170.322 1322.17 177.866 1324.21 185.111 1322.67L367.554 1283.9C374.8 1282.36 380.86 1277.42 383.835 1270.64L465.383 1084.73C467.962 1078.85 467.966 1072.16 465.394 1066.28L380.54 872.195C377.803 865.933 372.423 861.214 365.858 859.314L181.729 806.043C174.347 803.908 166.386 805.6 160.511 810.553Z" stroke="url(#paint59_linear_246_123)" stroke-width="4"/>
<path opacity="0.884058" d="M152.981 812.657L1.40394 926.42C-4.07601 930.533 -7.43694 936.875 -7.76362 943.719L-17.6554 1150.95C-17.9642 1157.41 -15.5313 1163.71 -10.9545 1168.3L130.099 1309.51C135.305 1314.73 142.693 1317.13 149.97 1315.98L332.632 1287.05C339.908 1285.89 346.192 1281.32 349.533 1274.76L440.044 1096.87C442.981 1091.09 443.348 1084.35 441.055 1078.29L367.611 884.265C365.186 877.857 360.029 872.864 353.547 870.646L174.233 809.291C167.029 806.826 159.071 808.086 152.981 812.657Z" stroke="url(#paint60_linear_246_123)" stroke-width="4"/>
<path opacity="0.898551" d="M145.091 815.542L-10.9009 919.331C-16.6204 923.136 -20.3395 929.299 -21.0403 936.133L-41.7591 1138.17C-42.4257 1144.67 -40.2961 1151.15 -35.9021 1155.99L96.0278 1301.19C100.954 1306.61 108.169 1309.37 115.455 1308.6L297.814 1289.43C305.1 1288.67 311.585 1284.48 315.276 1278.15L414.133 1108.69C417.426 1103.04 418.162 1096.26 416.159 1090.05L353.886 896.727C351.78 890.188 346.861 884.933 340.475 882.4L166.313 813.311C159.301 810.53 151.371 811.364 145.091 815.542Z" stroke="url(#paint61_linear_246_123)" stroke-width="4"/>
<path opacity="0.913043" d="M136.795 819.18L-22.9882 912.851C-28.9306 916.335 -32.9988 922.298 -34.0742 929.102L-65.1013 1125.4C-66.1307 1131.91 -64.3153 1138.56 -60.116 1143.64L62.6603 1292.28C67.2988 1297.89 74.3231 1300.98 81.5967 1300.6L263.139 1291.08C270.413 1290.7 277.076 1286.9 281.102 1280.83L387.669 1120.17C391.314 1114.68 392.425 1107.88 390.721 1101.51L339.345 909.532C337.564 902.878 332.895 897.372 326.621 894.529L157.922 818.072C151.118 814.989 143.24 815.402 136.795 819.18Z" stroke="url(#paint62_linear_246_123)" stroke-width="4"/>
<path opacity="0.927536" d="M128.057 823.53L-34.8921 906.979C-41.0394 910.128 -45.4467 915.872 -46.896 922.624L-87.6842 1112.66C-89.0809 1119.17 -87.5902 1125.96 -83.5971 1131.29L30.0276 1282.81C34.3712 1288.6 41.1885 1292.01 48.4284 1292.01L228.654 1292.01C235.894 1292.01 242.711 1288.6 247.054 1282.81L360.679 1131.29C364.672 1125.96 366.163 1119.17 364.766 1112.66L323.978 922.624C322.529 915.872 318.121 910.128 311.974 906.979L149.025 823.53C142.442 820.159 134.64 820.159 128.057 823.53Z" stroke="url(#paint63_linear_246_123)" stroke-width="4"/>
<path opacity="0.942029" d="M118.838 828.558L-46.6506 901.718C-52.9843 904.518 -57.7193 910.023 -59.5409 916.704L-109.518 1100.01C-111.285 1106.49 -110.129 1113.42 -106.354 1118.98L-1.84648 1272.84C2.19612 1278.79 8.79089 1282.51 15.9759 1282.89L194.395 1292.24C201.579 1292.61 208.527 1289.61 213.169 1284.11L333.186 1142.02C337.522 1136.88 339.397 1130.11 338.316 1123.48L307.774 935.954C306.661 929.119 302.527 923.15 296.521 919.703L139.586 829.646C133.237 826.002 125.533 825.599 118.838 828.558Z" stroke="url(#paint64_linear_246_123)" stroke-width="4"/>
<path opacity="0.956522" d="M109.105 834.226L-58.3003 897.066C-64.801 899.506 -69.8514 904.753 -72.0424 911.342L-130.612 1087.48C-132.753 1093.92 -131.941 1100.97 -128.394 1106.76L-32.9404 1262.43C-29.2038 1268.53 -22.8462 1272.54 -15.7371 1273.28L160.4 1291.8C167.509 1292.54 174.561 1289.94 179.483 1284.76L305.217 1152.33C309.89 1147.41 312.15 1140.68 311.395 1133.94L290.726 949.47C289.953 942.57 286.104 936.388 280.253 932.649L129.571 836.377C123.468 832.478 115.885 831.681 109.105 834.226Z" stroke="url(#paint65_linear_246_123)" stroke-width="4"/>
<path opacity="0.971014" d="M98.8256 840.489L-69.8759 893.015C-76.5234 895.085 -81.8756 900.054 -84.432 906.53L-150.979 1075.11C-153.495 1081.49 -153.037 1088.65 -149.729 1094.66L-63.235 1251.63C-59.8083 1257.85 -53.7016 1262.13 -46.6887 1263.24L126.706 1290.71C133.719 1291.82 140.851 1289.63 146.032 1284.77L276.8 1162.21C281.801 1157.52 284.451 1150.85 284.027 1144.01L272.832 963.116C272.402 956.167 268.848 949.786 263.165 945.764L118.952 843.676C113.106 839.538 105.665 838.359 98.8256 840.489Z" stroke="url(#paint66_linear_246_123)" stroke-width="4"/>
<path opacity="0.985507" d="M87.9727 847.307L-81.4122 889.563C-88.1855 891.253 -93.8248 895.928 -96.7414 902.27L-170.633 1062.95C-173.527 1069.24 -173.431 1076.5 -170.372 1082.72L-92.7149 1240.49C-89.6011 1246.81 -83.7579 1251.36 -76.8613 1252.83L93.3465 1289C100.243 1290.47 107.431 1288.69 112.849 1284.18L247.962 1171.64C253.283 1167.21 256.324 1160.61 256.24 1153.69L254.092 976.842C254.007 969.861 250.757 963.297 245.256 958.999L107.703 851.501C102.122 847.14 94.8443 845.593 87.9727 847.307Z" stroke="url(#paint67_linear_246_123)" stroke-width="4"/>
<path d="M76.5199 854.638L-92.9439 886.702C-99.8214 888.003 -105.732 892.365 -109.003 898.554L-189.593 1051.04C-192.863 1057.23 -193.138 1064.57 -190.339 1070.98L-121.369 1229.06C-118.57 1235.48 -113.002 1240.27 -106.241 1242.08L60.3525 1286.72C67.1135 1288.53 74.3315 1287.17 79.9632 1283.01L218.733 1180.59C224.364 1176.44 227.797 1169.94 228.059 1162.95L234.508 990.597C234.769 983.602 231.832 976.869 226.526 972.304L95.7985 859.803C90.4931 855.238 83.3974 853.336 76.5199 854.638Z" stroke="url(#paint68_linear_246_123)" stroke-width="4"/>
</g>
<defs>
<linearGradient id="paint0_linear_246_123" x1="1602.91" y1="1604.24" x2="1419.03" y2="443.223" gradientUnits="userSpaceOnUse">
<stop stop-color="#FF1CF7"/>
<stop offset="1" stop-color="#00F0FF"/>
</linearGradient>
<linearGradient id="paint1_linear_246_123" x1="1551.15" y1="1603.5" x2="1429.36" y2="444.767" gradientUnits="userSpaceOnUse">
<stop stop-color="#FF1CF7"/>
<stop offset="1" stop-color="#00F0FF"/>
</linearGradient>
<linearGradient id="paint2_linear_246_123" x1="1499.75" y1="1601.17" x2="1439.31" y2="448.014" gradientUnits="userSpaceOnUse">
<stop stop-color="#FF1CF7"/>
<stop offset="1" stop-color="#00F0FF"/>
</linearGradient>
<linearGradient id="paint3_linear_246_123" x1="1448.78" y1="1597.29" x2="1448.78" y2="452.93" gradientUnits="userSpaceOnUse">
<stop stop-color="#FF1CF7"/>
<stop offset="1" stop-color="#00F0FF"/>
</linearGradient>
<linearGradient id="paint4_linear_246_123" x1="1398.34" y1="1591.9" x2="1457.69" y2="459.471" gradientUnits="userSpaceOnUse">
<stop stop-color="#FF1CF7"/>
<stop offset="1" stop-color="#00F0FF"/>
</linearGradient>
<linearGradient id="paint5_linear_246_123" x1="1348.51" y1="1585.05" x2="1465.96" y2="467.59" gradientUnits="userSpaceOnUse">
<stop stop-color="#FF1CF7"/>
<stop offset="1" stop-color="#00F0FF"/>
</linearGradient>
<linearGradient id="paint6_linear_246_123" x1="1299.34" y1="1576.77" x2="1473.49" y2="477.238" gradientUnits="userSpaceOnUse">
<stop stop-color="#FF1CF7"/>
<stop offset="1" stop-color="#00F0FF"/>
</linearGradient>
<linearGradient id="paint7_linear_246_123" x1="1250.93" y1="1567.12" x2="1480.23" y2="488.357" gradientUnits="userSpaceOnUse">
<stop stop-color="#FF1CF7"/>
<stop offset="1" stop-color="#00F0FF"/>
</linearGradient>
<linearGradient id="paint8_linear_246_123" x1="1203.33" y1="1556.16" x2="1486.08" y2="500.894" gradientUnits="userSpaceOnUse">
<stop stop-color="#FF1CF7"/>
<stop offset="1" stop-color="#00F0FF"/>
</linearGradient>
<linearGradient id="paint9_linear_246_123" x1="1156.61" y1="1543.93" x2="1491" y2="514.781" gradientUnits="userSpaceOnUse">
<stop stop-color="#FF1CF7"/>
<stop offset="1" stop-color="#00F0FF"/>
</linearGradient>
<linearGradient id="paint10_linear_246_123" x1="1110.82" y1="1530.51" x2="1494.9" y2="529.957" gradientUnits="userSpaceOnUse">
<stop stop-color="#FF1CF7"/>
<stop offset="1" stop-color="#00F0FF"/>
</linearGradient>
<linearGradient id="paint11_linear_246_123" x1="1066.04" y1="1515.95" x2="1497.73" y2="546.352" gradientUnits="userSpaceOnUse">
<stop stop-color="#FF1CF7"/>
<stop offset="1" stop-color="#00F0FF"/>
</linearGradient>
<linearGradient id="paint12_linear_246_123" x1="1022.3" y1="1500.33" x2="1499.44" y2="563.893" gradientUnits="userSpaceOnUse">
<stop stop-color="#FF1CF7"/>
<stop offset="1" stop-color="#00F0FF"/>
</linearGradient>
<linearGradient id="paint13_linear_246_123" x1="979.66" y1="1483.71" x2="1499.97" y2="582.512" gradientUnits="userSpaceOnUse">
<stop stop-color="#FF1CF7"/>
<stop offset="1" stop-color="#00F0FF"/>
</linearGradient>
<linearGradient id="paint14_linear_246_123" x1="938.158" y1="1466.16" x2="1499.27" y2="602.127" gradientUnits="userSpaceOnUse">
<stop stop-color="#FF1CF7"/>
<stop offset="1" stop-color="#00F0FF"/>
</linearGradient>
<linearGradient id="paint15_linear_246_123" x1="897.838" y1="1447.75" x2="1497.3" y2="622.663" gradientUnits="userSpaceOnUse">
<stop stop-color="#FF1CF7"/>
<stop offset="1" stop-color="#00F0FF"/>
</linearGradient>
<linearGradient id="paint16_linear_246_123" x1="858.731" y1="1428.56" x2="1494.02" y2="644.04" gradientUnits="userSpaceOnUse">
<stop stop-color="#FF1CF7"/>
<stop offset="1" stop-color="#00F0FF"/>
</linearGradient>
<linearGradient id="paint17_linear_246_123" x1="820.873" y1="1408.66" x2="1489.41" y2="666.178" gradientUnits="userSpaceOnUse">
<stop stop-color="#FF1CF7"/>
<stop offset="1" stop-color="#00F0FF"/>
</linearGradient>
<linearGradient id="paint18_linear_246_123" x1="784.286" y1="1388.13" x2="1483.43" y2="688.991" gradientUnits="userSpaceOnUse">
<stop stop-color="#FF1CF7"/>
<stop offset="1" stop-color="#00F0FF"/>
</linearGradient>
<linearGradient id="paint19_linear_246_123" x1="748.992" y1="1367.05" x2="1476.06" y2="712.401" gradientUnits="userSpaceOnUse">
<stop stop-color="#FF1CF7"/>
<stop offset="1" stop-color="#00F0FF"/>
</linearGradient>
<linearGradient id="paint20_linear_246_123" x1="715.009" y1="1345.5" x2="1467.28" y2="736.323" gradientUnits="userSpaceOnUse">
<stop stop-color="#FF1CF7"/>
<stop offset="1" stop-color="#00F0FF"/>
</linearGradient>
<linearGradient id="paint21_linear_246_123" x1="682.348" y1="1323.54" x2="1457.07" y2="760.671" gradientUnits="userSpaceOnUse">
<stop stop-color="#FF1CF7"/>
<stop offset="1" stop-color="#00F0FF"/>
</linearGradient>
<linearGradient id="paint22_linear_246_123" x1="651.02" y1="1301.27" x2="1445.44" y2="785.365" gradientUnits="userSpaceOnUse">
<stop stop-color="#FF1CF7"/>
<stop offset="1" stop-color="#00F0FF"/>
</linearGradient>
<linearGradient id="paint23_linear_246_123" x1="621.025" y1="1278.75" x2="1432.37" y2="810.318" gradientUnits="userSpaceOnUse">
<stop stop-color="#FF1CF7"/>
<stop offset="1" stop-color="#00F0FF"/>
</linearGradient>
<linearGradient id="paint24_linear_246_123" x1="592.364" y1="1256.07" x2="1417.87" y2="835.451" gradientUnits="userSpaceOnUse">
<stop stop-color="#FF1CF7"/>
<stop offset="1" stop-color="#00F0FF"/>
</linearGradient>
<linearGradient id="paint25_linear_246_123" x1="565.031" y1="1233.3" x2="1401.94" y2="860.679" gradientUnits="userSpaceOnUse">
<stop stop-color="#FF1CF7"/>
<stop offset="1" stop-color="#00F0FF"/>
</linearGradient>
<linearGradient id="paint26_linear_246_123" x1="539.015" y1="1210.51" x2="1384.59" y2="885.922" gradientUnits="userSpaceOnUse">
<stop stop-color="#FF1CF7"/>
<stop offset="1" stop-color="#00F0FF"/>
</linearGradient>
<linearGradient id="paint27_linear_246_123" x1="514.304" y1="1187.78" x2="1365.84" y2="911.1" gradientUnits="userSpaceOnUse">
<stop stop-color="#FF1CF7"/>
<stop offset="1" stop-color="#00F0FF"/>
</linearGradient>
<linearGradient id="paint28_linear_246_123" x1="490.881" y1="1165.19" x2="1345.71" y2="936.137" gradientUnits="userSpaceOnUse">
<stop stop-color="#FF1CF7"/>
<stop offset="1" stop-color="#00F0FF"/>
</linearGradient>
<linearGradient id="paint29_linear_246_123" x1="468.721" y1="1142.8" x2="1324.22" y2="960.955" gradientUnits="userSpaceOnUse">
<stop stop-color="#FF1CF7"/>
<stop offset="1" stop-color="#00F0FF"/>
</linearGradient>
<linearGradient id="paint30_linear_246_123" x1="447.802" y1="1120.68" x2="1301.4" y2="985.482" gradientUnits="userSpaceOnUse">
<stop stop-color="#FF1CF7"/>
<stop offset="1" stop-color="#00F0FF"/>
</linearGradient>
<linearGradient id="paint31_linear_246_123" x1="428.09" y1="1098.9" x2="1277.28" y2="1009.64" gradientUnits="userSpaceOnUse">
<stop stop-color="#FF1CF7"/>
<stop offset="1" stop-color="#00F0FF"/>
</linearGradient>
<linearGradient id="paint32_linear_246_123" x1="409.556" y1="1077.52" x2="1251.89" y2="1033.37" gradientUnits="userSpaceOnUse">
<stop stop-color="#FF1CF7"/>
<stop offset="1" stop-color="#00F0FF"/>
</linearGradient>
<linearGradient id="paint33_linear_246_123" x1="392.162" y1="1056.6" x2="1225.27" y2="1056.6" gradientUnits="userSpaceOnUse">
<stop stop-color="#FF1CF7"/>
<stop offset="1" stop-color="#00F0FF"/>
</linearGradient>
<linearGradient id="paint34_linear_246_123" x1="375.868" y1="1036.21" x2="1197.48" y2="1079.27" gradientUnits="userSpaceOnUse">
<stop stop-color="#FF1CF7"/>
<stop offset="1" stop-color="#00F0FF"/>
</linearGradient>
<linearGradient id="paint35_linear_246_123" x1="360.632" y1="1016.4" x2="1168.54" y2="1101.32" gradientUnits="userSpaceOnUse">
<stop stop-color="#FF1CF7"/>
<stop offset="1" stop-color="#00F0FF"/>
</linearGradient>
<linearGradient id="paint36_linear_246_123" x1="346.407" y1="997.222" x2="1138.52" y2="1122.68" gradientUnits="userSpaceOnUse">
<stop stop-color="#FF1CF7"/>
<stop offset="1" stop-color="#00F0FF"/>
</linearGradient>
<linearGradient id="paint37_linear_246_123" x1="333.148" y1="978.727" x2="1107.46" y2="1143.31" gradientUnits="userSpaceOnUse">
<stop stop-color="#FF1CF7"/>
<stop offset="1" stop-color="#00F0FF"/>
</linearGradient>
<linearGradient id="paint38_linear_246_123" x1="320.803" y1="960.96" x2="1075.42" y2="1163.16" gradientUnits="userSpaceOnUse">
<stop stop-color="#FF1CF7"/>
<stop offset="1" stop-color="#00F0FF"/>
</linearGradient>
<linearGradient id="paint39_linear_246_123" x1="309.321" y1="943.966" x2="1042.45" y2="1182.18" gradientUnits="userSpaceOnUse">
<stop stop-color="#FF1CF7"/>
<stop offset="1" stop-color="#00F0FF"/>
</linearGradient>
<linearGradient id="paint40_linear_246_123" x1="298.644" y1="927.783" x2="1008.62" y2="1200.32" gradientUnits="userSpaceOnUse">
<stop stop-color="#FF1CF7"/>
<stop offset="1" stop-color="#00F0FF"/>
</linearGradient>
<linearGradient id="paint41_linear_246_123" x1="288.717" y1="912.451" x2="973.979" y2="1217.55" gradientUnits="userSpaceOnUse">
<stop stop-color="#FF1CF7"/>
<stop offset="1" stop-color="#00F0FF"/>
</linearGradient>
<linearGradient id="paint42_linear_246_123" x1="279.482" y1="897.999" x2="938.593" y2="1233.83" gradientUnits="userSpaceOnUse">
<stop stop-color="#FF1CF7"/>
<stop offset="1" stop-color="#00F0FF"/>
</linearGradient>
<linearGradient id="paint43_linear_246_123" x1="270.881" y1="884.458" x2="902.527" y2="1249.14" gradientUnits="userSpaceOnUse">
<stop stop-color="#FF1CF7"/>
<stop offset="1" stop-color="#00F0FF"/>
</linearGradient>
<linearGradient id="paint44_linear_246_123" x1="262.852" y1="871.85" x2="865.846" y2="1263.44" gradientUnits="userSpaceOnUse">
<stop stop-color="#FF1CF7"/>
<stop offset="1" stop-color="#00F0FF"/>
</linearGradient>
<linearGradient id="paint45_linear_246_123" x1="255.334" y1="860.199" x2="828.614" y2="1276.71" gradientUnits="userSpaceOnUse">
<stop stop-color="#FF1CF7"/>
<stop offset="1" stop-color="#00F0FF"/>
</linearGradient>
<linearGradient id="paint46_linear_246_123" x1="248.267" y1="849.523" x2="790.899" y2="1288.94" gradientUnits="userSpaceOnUse">
<stop stop-color="#FF1CF7"/>
<stop offset="1" stop-color="#00F0FF"/>
</linearGradient>
<linearGradient id="paint47_linear_246_123" x1="241.586" y1="839.831" x2="752.768" y2="1300.1" gradientUnits="userSpaceOnUse">
<stop stop-color="#FF1CF7"/>
<stop offset="1" stop-color="#00F0FF"/>
</linearGradient>
<linearGradient id="paint48_linear_246_123" x1="235.232" y1="831.139" x2="714.288" y2="1310.2" gradientUnits="userSpaceOnUse">
<stop stop-color="#FF1CF7"/>
<stop offset="1" stop-color="#00F0FF"/>
</linearGradient>
<linearGradient id="paint49_linear_246_123" x1="229.139" y1="823.448" x2="675.525" y2="1319.21" gradientUnits="userSpaceOnUse">
<stop stop-color="#FF1CF7"/>
<stop offset="1" stop-color="#00F0FF"/>
</linearGradient>
<linearGradient id="paint50_linear_246_123" x1="223.247" y1="816.763" x2="636.546" y2="1327.14" gradientUnits="userSpaceOnUse">
<stop stop-color="#FF1CF7"/>
<stop offset="1" stop-color="#00F0FF"/>
</linearGradient>
<linearGradient id="paint51_linear_246_123" x1="217.495" y1="811.081" x2="597.418" y2="1334" gradientUnits="userSpaceOnUse">
<stop stop-color="#FF1CF7"/>
<stop offset="1" stop-color="#00F0FF"/>
</linearGradient>
<linearGradient id="paint52_linear_246_123" x1="211.821" y1="806.399" x2="558.204" y2="1339.78" gradientUnits="userSpaceOnUse">
<stop stop-color="#FF1CF7"/>
<stop offset="1" stop-color="#00F0FF"/>
</linearGradient>
<linearGradient id="paint53_linear_246_123" x1="206.165" y1="802.703" x2="518.971" y2="1344.5" gradientUnits="userSpaceOnUse">
<stop stop-color="#FF1CF7"/>
<stop offset="1" stop-color="#00F0FF"/>
</linearGradient>
<linearGradient id="paint54_linear_246_123" x1="200.469" y1="799.988" x2="479.781" y2="1348.17" gradientUnits="userSpaceOnUse">
<stop stop-color="#FF1CF7"/>
<stop offset="1" stop-color="#00F0FF"/>
</linearGradient>
<linearGradient id="paint55_linear_246_123" x1="194.675" y1="798.232" x2="440.695" y2="1350.8" gradientUnits="userSpaceOnUse">
<stop stop-color="#FF1CF7"/>
<stop offset="1" stop-color="#00F0FF"/>
</linearGradient>
<linearGradient id="paint56_linear_246_123" x1="188.73" y1="797.422" x2="401.775" y2="1352.42" gradientUnits="userSpaceOnUse">
<stop stop-color="#FF1CF7"/>
<stop offset="1" stop-color="#00F0FF"/>
</linearGradient>
<linearGradient id="paint57_linear_246_123" x1="182.577" y1="797.529" x2="363.077" y2="1353.05" gradientUnits="userSpaceOnUse">
<stop stop-color="#FF1CF7"/>
<stop offset="1" stop-color="#00F0FF"/>
</linearGradient>
<linearGradient id="paint58_linear_246_123" x1="176.165" y1="798.533" x2="324.659" y2="1352.72" gradientUnits="userSpaceOnUse">
<stop stop-color="#FF1CF7"/>
<stop offset="1" stop-color="#00F0FF"/>
</linearGradient>
<linearGradient id="paint59_linear_246_123" x1="169.443" y1="800.407" x2="286.572" y2="1351.46" gradientUnits="userSpaceOnUse">
<stop stop-color="#FF1CF7"/>
<stop offset="1" stop-color="#00F0FF"/>
</linearGradient>
<linearGradient id="paint60_linear_246_123" x1="162.363" y1="803.115" x2="248.869" y2="1349.29" gradientUnits="userSpaceOnUse">
<stop stop-color="#FF1CF7"/>
<stop offset="1" stop-color="#00F0FF"/>
</linearGradient>
<linearGradient id="paint61_linear_246_123" x1="154.882" y1="806.625" x2="211.6" y2="1346.27" gradientUnits="userSpaceOnUse">
<stop stop-color="#FF1CF7"/>
<stop offset="1" stop-color="#00F0FF"/>
</linearGradient>
<linearGradient id="paint62_linear_246_123" x1="146.954" y1="810.906" x2="174.809" y2="1342.41" gradientUnits="userSpaceOnUse">
<stop stop-color="#FF1CF7"/>
<stop offset="1" stop-color="#00F0FF"/>
</linearGradient>
<linearGradient id="paint63_linear_246_123" x1="138.541" y1="815.914" x2="138.541" y2="1337.78" gradientUnits="userSpaceOnUse">
<stop stop-color="#FF1CF7"/>
<stop offset="1" stop-color="#00F0FF"/>
</linearGradient>
<linearGradient id="paint64_linear_246_123" x1="129.605" y1="821.612" x2="102.835" y2="1332.4" gradientUnits="userSpaceOnUse">
<stop stop-color="#FF1CF7"/>
<stop offset="1" stop-color="#00F0FF"/>
</linearGradient>
<linearGradient id="paint65_linear_246_123" x1="120.11" y1="827.959" x2="67.7291" y2="1326.33" gradientUnits="userSpaceOnUse">
<stop stop-color="#FF1CF7"/>
<stop offset="1" stop-color="#00F0FF"/>
</linearGradient>
<linearGradient id="paint66_linear_246_123" x1="110.025" y1="834.907" x2="33.2571" y2="1319.6" gradientUnits="userSpaceOnUse">
<stop stop-color="#FF1CF7"/>
<stop offset="1" stop-color="#00F0FF"/>
</linearGradient>
<linearGradient id="paint67_linear_246_123" x1="99.3234" y1="842.414" x2="-0.549625" y2="1312.28" gradientUnits="userSpaceOnUse">
<stop stop-color="#FF1CF7"/>
<stop offset="1" stop-color="#00F0FF"/>
</linearGradient>
<linearGradient id="paint68_linear_246_123" x1="87.9776" y1="850.434" x2="-33.6642" y2="1304.41" gradientUnits="userSpaceOnUse">
<stop stop-color="#FF1CF7"/>
<stop offset="1" stop-color="#00F0FF"/>
</linearGradient>
<clipPath id="clip0_246_123">
<rect width="1728" height="1117" fill="white"/>
</clipPath>
</defs>
</svg>
