<svg width="38" height="38" viewBox="0 0 38 38" fill="none" xmlns="http://www.w3.org/2000/svg">
<path d="M29 13V9C29 8.44772 28.5523 8 28 8C27.4477 8 27 8.44772 27 9V13C27 13.5523 27.4477 14 28 14C28.5523 14 29 13.5523 29 13Z" fill="url(#paint0_linear_242_92)"/>
<path d="M18.9999 23.75C13.9806 23.75 9.51702 26.1735 6.67525 29.9344C6.06363 30.7439 5.75781 31.1486 5.76782 31.6956C5.77554 32.1182 6.04091 32.6513 6.37342 32.9123C6.80381 33.25 7.40022 33.25 8.59304 33.25H29.4068C30.5996 33.25 31.1961 33.25 31.6264 32.9123C31.9589 32.6513 32.2243 32.1182 32.232 31.6956C32.242 31.1486 31.9362 30.7439 31.3246 29.9344C28.4828 26.1735 24.0192 23.75 18.9999 23.75Z" fill="url(#paint1_linear_242_92)"/>
<path d="M18.9999 19C22.935 19 26.1249 15.81 26.1249 11.875C26.1249 7.93997 22.935 4.75 18.9999 4.75C15.0649 4.75 11.8749 7.93997 11.8749 11.875C11.8749 15.81 15.0649 19 18.9999 19Z" fill="url(#paint2_linear_242_92)"/>
<path d="M18.9999 23.75C13.9806 23.75 9.51702 26.1735 6.67525 29.9344C6.06363 30.7439 5.75781 31.1486 5.76782 31.6956C5.77554 32.1182 6.04091 32.6513 6.37342 32.9123C6.80381 33.25 7.40022 33.25 8.59304 33.25H29.4068C30.5996 33.25 31.1961 33.25 31.6264 32.9123C31.9589 32.6513 32.2243 32.1182 32.232 31.6956C32.242 31.1486 31.9362 30.7439 31.3246 29.9344C28.4828 26.1735 24.0192 23.75 18.9999 23.75Z" stroke="black"/>
<path d="M18.9999 19C22.935 19 26.1249 15.81 26.1249 11.875C26.1249 7.93997 22.935 4.75 18.9999 4.75C15.0649 4.75 11.8749 7.93997 11.8749 11.875C11.8749 15.81 15.0649 19 18.9999 19Z" stroke="black"/>
<path d="M19.4996 16.0203C18.5414 14.7389 21.6277 14.5804 22.2939 14.9147L22.4951 16.0186C22.2283 16.2184 20.4578 17.3016 19.4996 16.0203Z" fill="black" stroke="black" stroke-width="0.2"/>
<path d="M22.5 15.5L25 15L28 12.5" stroke="black" stroke-width="0.5"/>
<defs>
<linearGradient id="paint0_linear_242_92" x1="28" y1="8" x2="28" y2="14" gradientUnits="userSpaceOnUse">
<stop stop-color="#8C2CEC"/>
<stop offset="1" stop-color="#2568CC"/>
</linearGradient>
<linearGradient id="paint1_linear_242_92" x1="18.9999" y1="4.75" x2="18.9999" y2="33.25" gradientUnits="userSpaceOnUse">
<stop offset="0.221666" stop-color="#8C2CEC"/>
<stop offset="0.526666" stop-color="#2568CC"/>
<stop offset="1" stop-color="#2BF3E7"/>
</linearGradient>
<linearGradient id="paint2_linear_242_92" x1="18.9999" y1="4.75" x2="18.9999" y2="33.25" gradientUnits="userSpaceOnUse">
<stop offset="0.221666" stop-color="#8C2CEC"/>
<stop offset="0.526666" stop-color="#2568CC"/>
<stop offset="1" stop-color="#2BF3E7"/>
</linearGradient>
</defs>
</svg>
