<svg width="103" height="47" viewBox="0 0 103 47" fill="none" xmlns="http://www.w3.org/2000/svg">
<g clip-path="url(#clip0_240_207)">
<circle cx="24.084" cy="23.5" r="23.5" fill="url(#paint0_linear_240_207)"/>
<path d="M91.562 25.272H85.798L84.874 28H80.936L86.524 12.556H90.88L96.468 28H92.486L91.562 25.272ZM90.594 22.368L88.68 16.714L86.788 22.368H90.594ZM101.931 12.556V28H98.1687V12.556H101.931Z" fill="black"/>
<path d="M12.688 28L10.448 24.108H9.22998V28H7.63398V18.27H10.994C11.7407 18.27 12.3707 18.4007 12.884 18.662C13.4067 18.9233 13.794 19.2733 14.046 19.712C14.3073 20.1507 14.438 20.6407 14.438 21.182C14.438 21.8167 14.2513 22.3953 13.878 22.918C13.514 23.4313 12.9493 23.7813 12.184 23.968L14.592 28H12.688ZM9.22998 22.834H10.994C11.5913 22.834 12.0393 22.6847 12.338 22.386C12.646 22.0873 12.8 21.686 12.8 21.182C12.8 20.678 12.6507 20.286 12.352 20.006C12.0533 19.7167 11.6007 19.572 10.994 19.572H9.22998V22.834ZM23.5497 23.954C23.5497 24.2433 23.531 24.5047 23.4937 24.738H17.5997C17.6464 25.354 17.875 25.8487 18.2857 26.222C18.6964 26.5953 19.2004 26.782 19.7977 26.782C20.6564 26.782 21.263 26.4227 21.6177 25.704H23.3397C23.1064 26.4133 22.6817 26.9967 22.0657 27.454C21.459 27.902 20.703 28.126 19.7977 28.126C19.0604 28.126 18.3977 27.9627 17.8097 27.636C17.231 27.3 16.7737 26.8333 16.4377 26.236C16.111 25.6293 15.9477 24.9293 15.9477 24.136C15.9477 23.3427 16.1064 22.6473 16.4237 22.05C16.7504 21.4433 17.203 20.9767 17.7817 20.65C18.3697 20.3233 19.0417 20.16 19.7977 20.16C20.5257 20.16 21.1744 20.3187 21.7437 20.636C22.313 20.9533 22.7564 21.4013 23.0737 21.98C23.391 22.5493 23.5497 23.2073 23.5497 23.954ZM21.8837 23.45C21.8744 22.862 21.6644 22.3907 21.2537 22.036C20.843 21.6813 20.3344 21.504 19.7277 21.504C19.177 21.504 18.7057 21.6813 18.3137 22.036C17.9217 22.3813 17.6884 22.8527 17.6137 23.45H21.8837ZM24.5883 24.136C24.5883 23.3427 24.747 22.6473 25.0643 22.05C25.391 21.4433 25.839 20.9767 26.4083 20.65C26.9776 20.3233 27.631 20.16 28.3683 20.16C29.3016 20.16 30.0716 20.384 30.6783 20.832C31.2943 21.2707 31.7096 21.9007 31.9243 22.722H30.2023C30.0623 22.3393 29.8383 22.0407 29.5303 21.826C29.2223 21.6113 28.835 21.504 28.3683 21.504C27.715 21.504 27.1923 21.7373 26.8003 22.204C26.4176 22.6613 26.2263 23.3053 26.2263 24.136C26.2263 24.9667 26.4176 25.6153 26.8003 26.082C27.1923 26.5487 27.715 26.782 28.3683 26.782C29.2923 26.782 29.9036 26.376 30.2023 25.564H31.9243C31.7003 26.348 31.2803 26.9733 30.6643 27.44C30.0483 27.8973 29.283 28.126 28.3683 28.126C27.631 28.126 26.9776 27.9627 26.4083 27.636C25.839 27.3 25.391 26.8333 25.0643 26.236C24.747 25.6293 24.5883 24.9293 24.5883 24.136ZM35.1108 21.406C35.3442 21.014 35.6522 20.7107 36.0348 20.496C36.4268 20.272 36.8888 20.16 37.4208 20.16V21.812H37.0148C36.3895 21.812 35.9135 21.9707 35.5868 22.288C35.2695 22.6053 35.1108 23.156 35.1108 23.94V28H33.5148V20.286H35.1108V21.406ZM45.8739 20.286V28H44.2779V27.09C44.0259 27.4073 43.6946 27.6593 43.2839 27.846C42.8826 28.0233 42.4532 28.112 41.9959 28.112C41.3892 28.112 40.8432 27.986 40.3579 27.734C39.8819 27.482 39.5039 27.1087 39.2239 26.614C38.9532 26.1193 38.8179 25.522 38.8179 24.822V20.286H40.3999V24.584C40.3999 25.2747 40.5726 25.8067 40.9179 26.18C41.2632 26.544 41.7346 26.726 42.3319 26.726C42.9292 26.726 43.4006 26.544 43.7459 26.18C44.1006 25.8067 44.2779 25.2747 44.2779 24.584V20.286H45.8739Z" fill="white"/>
<path d="M48.7917 19.264C48.5024 19.264 48.2597 19.166 48.0637 18.97C47.8677 18.774 47.7697 18.5313 47.7697 18.242C47.7697 17.9527 47.8677 17.71 48.0637 17.514C48.2597 17.318 48.5024 17.22 48.7917 17.22C49.0717 17.22 49.3097 17.318 49.5057 17.514C49.7017 17.71 49.7997 17.9527 49.7997 18.242C49.7997 18.5313 49.7017 18.774 49.5057 18.97C49.3097 19.166 49.0717 19.264 48.7917 19.264ZM49.5757 20.286V28H47.9797V20.286H49.5757ZM53.5331 21.588V25.858C53.5331 26.1473 53.5984 26.3573 53.7291 26.488C53.8691 26.6093 54.1024 26.67 54.4291 26.67H55.4091V28H54.1491C53.4304 28 52.8798 27.832 52.4971 27.496C52.1144 27.16 51.9231 26.614 51.9231 25.858V21.588H51.0131V20.286H51.9231V18.368H53.5331V20.286H55.4091V21.588H53.5331ZM67.1281 18.27V28H65.5321V21.336L62.5641 28H61.4581L58.4761 21.336V28H56.8801V18.27H58.6021L62.0181 25.9L65.4201 18.27H67.1281ZM76.2958 23.954C76.2958 24.2433 76.2771 24.5047 76.2398 24.738H70.3458C70.3924 25.354 70.6211 25.8487 71.0318 26.222C71.4424 26.5953 71.9464 26.782 72.5438 26.782C73.4024 26.782 74.0091 26.4227 74.3638 25.704H76.0858C75.8524 26.4133 75.4278 26.9967 74.8118 27.454C74.2051 27.902 73.4491 28.126 72.5438 28.126C71.8064 28.126 71.1438 27.9627 70.5558 27.636C69.9771 27.3 69.5198 26.8333 69.1838 26.236C68.8571 25.6293 68.6938 24.9293 68.6938 24.136C68.6938 23.3427 68.8524 22.6473 69.1698 22.05C69.4964 21.4433 69.9491 20.9767 70.5278 20.65C71.1158 20.3233 71.7878 20.16 72.5438 20.16C73.2718 20.16 73.9204 20.3187 74.4898 20.636C75.0591 20.9533 75.5024 21.4013 75.8198 21.98C76.1371 22.5493 76.2958 23.2073 76.2958 23.954ZM74.6298 23.45C74.6204 22.862 74.4104 22.3907 73.9998 22.036C73.5891 21.6813 73.0804 21.504 72.4738 21.504C71.9231 21.504 71.4518 21.6813 71.0598 22.036C70.6678 22.3813 70.4344 22.8527 70.3598 23.45H74.6298ZM78.5104 28.098C78.2211 28.098 77.9784 28 77.7824 27.804C77.5864 27.608 77.4884 27.3653 77.4884 27.076C77.4884 26.7867 77.5864 26.544 77.7824 26.348C77.9784 26.152 78.2211 26.054 78.5104 26.054C78.7904 26.054 79.0284 26.152 79.2244 26.348C79.4204 26.544 79.5184 26.7867 79.5184 27.076C79.5184 27.3653 79.4204 27.608 79.2244 27.804C79.0284 28 78.7904 28.098 78.5104 28.098Z" fill="black"/>
<path d="M21.834 13.0423L22.2262 12.3232C22.359 12.0799 22.4253 11.9582 22.514 11.8527C22.5927 11.7592 22.6842 11.6753 22.7863 11.6032C22.9013 11.5219 23.034 11.461 23.2995 11.3394L24.084 10.9798L23.2995 10.6203C23.034 10.4986 22.9013 10.4378 22.7863 10.3565C22.6842 10.2843 22.5927 10.2005 22.514 10.1069C22.4253 10.0015 22.359 9.87977 22.2262 9.6364L21.834 8.91732L21.4418 9.6364C21.309 9.87977 21.2426 10.0015 21.154 10.1069C21.0753 10.2005 20.9838 10.2843 20.8817 10.3565C20.7667 10.4378 20.6339 10.4986 20.3684 10.6203L19.584 10.9798L20.3684 11.3394C20.6339 11.461 20.7667 11.5219 20.8817 11.6032C20.9838 11.6753 21.0753 11.7592 21.154 11.8527C21.2426 11.9582 21.309 12.0799 21.4418 12.3232L21.834 13.0423Z" fill="white"/>
<path d="M26.084 18.084L26.6733 16.6795C26.8143 16.3434 26.8848 16.1754 26.9944 16.034C27.0916 15.9088 27.211 15.7993 27.3477 15.7102C27.5019 15.6097 27.6852 15.5451 28.0518 15.4159L29.584 14.8757L28.0518 14.3354C27.6852 14.2062 27.5019 14.1416 27.3477 14.0411C27.211 13.952 27.0916 13.8425 26.9944 13.7173C26.8848 13.5759 26.8143 13.4079 26.6733 13.0718L26.084 11.6673L25.4947 13.0718C25.3537 13.4079 25.2832 13.5759 25.1735 13.7173C25.0764 13.8425 24.957 13.952 24.8203 14.0411C24.6661 14.1416 24.4828 14.2062 24.1162 14.3354L22.584 14.8757L24.1162 15.4159C24.4828 15.5451 24.6661 15.6097 24.8203 15.7102C24.957 15.7993 25.0764 15.9088 25.1735 16.034C25.2832 16.1754 25.3537 16.3434 25.4947 16.6795L26.084 18.084Z" fill="white"/>
<path d="M21.834 13.0423L22.2262 12.3232C22.359 12.0799 22.4253 11.9582 22.514 11.8527C22.5927 11.7592 22.6842 11.6753 22.7863 11.6032C22.9013 11.5219 23.034 11.461 23.2995 11.3394L24.084 10.9798L23.2995 10.6203C23.034 10.4986 22.9013 10.4378 22.7863 10.3565C22.6842 10.2843 22.5927 10.2005 22.514 10.1069C22.4253 10.0015 22.359 9.87977 22.2262 9.6364L21.834 8.91732L21.4418 9.6364C21.309 9.87977 21.2426 10.0015 21.154 10.1069C21.0753 10.2005 20.9838 10.2843 20.8817 10.3565C20.7667 10.4378 20.6339 10.4986 20.3684 10.6203L19.584 10.9798L20.3684 11.3394C20.6339 11.461 20.7667 11.5219 20.8817 11.6032C20.9838 11.6753 21.0753 11.7592 21.154 11.8527C21.2426 11.9582 21.309 12.0799 21.4418 12.3232L21.834 13.0423Z" stroke="white"/>
<path d="M26.084 18.084L26.6733 16.6795C26.8143 16.3434 26.8848 16.1754 26.9944 16.034C27.0916 15.9088 27.211 15.7993 27.3477 15.7102C27.5019 15.6097 27.6852 15.5451 28.0518 15.4159L29.584 14.8757L28.0518 14.3354C27.6852 14.2062 27.5019 14.1416 27.3477 14.0411C27.211 13.952 27.0916 13.8425 26.9944 13.7173C26.8848 13.5759 26.8143 13.4079 26.6733 13.0718L26.084 11.6673L25.4947 13.0718C25.3537 13.4079 25.2832 13.5759 25.1735 13.7173C25.0764 13.8425 24.957 13.952 24.8203 14.0411C24.6661 14.1416 24.4828 14.2062 24.1162 14.3354L22.584 14.8757L24.1162 15.4159C24.4828 15.5451 24.6661 15.6097 24.8203 15.7102C24.957 15.7993 25.0764 15.9088 25.1735 16.034C25.2832 16.1754 25.3537 16.3434 25.4947 16.6795L26.084 18.084Z" stroke="white"/>
</g>
<defs>
<linearGradient id="paint0_linear_240_207" x1="24.084" y1="0" x2="24.084" y2="47" gradientUnits="userSpaceOnUse">
<stop stop-color="#8C2CEC"/>
<stop offset="0.501666" stop-color="#2568CC"/>
<stop offset="1" stop-color="#2BF3E7"/>
</linearGradient>
<clipPath id="clip0_240_207">
<rect width="101.83" height="47" fill="white" transform="translate(0.583984)"/>
</clipPath>
</defs>
</svg>
